<?xml version="1.0" encoding="iso-8859-1"?>
<!-- Generator: Adobe Illustrator 19.0.0, SVG Export Plug-In . SVG Version: 6.00 Build 0)  -->
<svg xmlns="http://www.w3.org/2000/svg" xmlns:xlink="http://www.w3.org/1999/xlink" version="1.1" id="Capa_1" x="0px" y="0px" viewBox="0 0 465 465" style="enable-background:new 0 0 465 465;" xml:space="preserve" width="512" height="512">
<g>
	<path style="fill:#C7A395;" d="M232.5,331.21l32.32-19.73c0-10.9-8.84-19.73-19.73-19.73h-25.18c-10.89,0-19.73,8.83-19.73,19.73   L232.5,331.21z M387.5,166.74c-14.87,5.03-25.58,19.04-25.58,35.62v92.2c-19.69,0-27.91,25.18-40.01,60.69   c-16.16,47.38-52.95,64.59-89.41,64.59s-73.25-17.21-89.41-64.59c-12.1-35.51-20.32-60.69-40.01-60.69v-92.2   c0-16.58-10.71-30.59-25.58-35.62c25.22-50.38,67.67-76.51,110.82-88.51c5.6-19.11,23.26-33.07,44.18-33.07   s38.58,13.96,44.18,33.07C319.83,90.23,362.28,116.36,387.5,166.74z"/>
	<path style="fill:#945136;" d="M264.82,311.48l-32.32,19.73l-32.32-19.73c0-10.9,8.84-19.73,19.73-19.73h25.18   C255.98,291.75,264.82,300.58,264.82,311.48z"/>
	<path style="fill:#945136;" d="M103.08,294.56v52.78c0,26.39-21.4,47.79-47.79,47.79S7.5,373.73,7.5,347.34   c0-31.86,18.35-77.43,70-180.6c14.87,5.03,25.58,19.04,25.58,35.62V294.56z"/>
	<path style="fill:#945136;" d="M457.5,347.34c0,26.39-21.4,47.79-47.79,47.79c-26.39,0-47.79-21.4-47.79-47.79v-52.78v-92.2   c0-16.58,10.71-30.59,25.58-35.62C439.15,269.91,457.5,315.48,457.5,347.34z"/>
	<path style="fill:#591200;" d="M268.5,360.732c-14.673,0-26.788-11.147-28.331-25.417l28.556-17.433   c2.231-1.362,3.592-3.788,3.592-6.401c0-15.014-12.215-27.229-27.229-27.229h-25.176c-15.014,0-27.229,12.215-27.229,27.229   c0,2.614,1.361,5.04,3.592,6.401l28.556,17.433c-1.543,14.27-13.658,25.417-28.331,25.417c-4.142,0-7.5,3.358-7.5,7.5   s3.358,7.5,7.5,7.5c14.954,0,28.167-7.586,36-19.11c7.833,11.524,21.046,19.11,36,19.11c4.142,0,7.5-3.358,7.5-7.5   S272.642,360.732,268.5,360.732z M219.912,299.251h25.176c5.405,0,10.002,3.524,11.614,8.396L232.5,322.423l-24.202-14.775   C209.909,302.776,214.506,299.251,219.912,299.251z"/>
	<path style="fill:#591200;" d="M190.095,222c0-3.771-2.799-6.955-6.539-7.438l-36.829-4.758c-4.108-0.534-7.868,2.369-8.399,6.477   s2.369,7.868,6.477,8.399l30.29,3.914v12.648c0,4.142,3.358,7.5,7.5,7.5s7.5-3.358,7.5-7.5V222z"/>
	<path style="fill:#591200;" d="M317.177,211.003l-34.198,4.418c-3.74,0.483-6.539,3.667-6.539,7.438v17.182   c0,4.142,3.358,7.5,7.5,7.5s7.5-3.358,7.5-7.5v-10.588l27.659-3.574c4.108-0.531,7.008-4.291,6.477-8.399   C325.045,213.373,321.285,210.471,317.177,211.003z"/>
	<path style="fill:#591200;" d="M394.206,163.38c-22.363-44.669-60.927-76.162-111.683-91.274   c-7.839-20.479-27.835-34.449-50.023-34.449c-22.188,0-42.185,13.97-50.023,34.449c-50.755,15.112-89.319,46.605-111.682,91.273   C16.541,271.747,0,314.727,0,347.337c0,30.486,24.802,55.289,55.289,55.289s55.289-24.802,55.289-55.289v-42.863   c8.973,6.162,15.469,24,24.762,51.271l0.655,1.923c15.096,44.279,50.271,69.674,96.506,69.674s81.41-25.395,96.506-69.674   l0.655-1.923c9.293-27.271,15.789-45.109,24.762-51.271v42.863c0,30.486,24.802,55.289,55.289,55.289S465,377.823,465,347.337   C465,314.727,448.459,271.747,394.206,163.38z M409.711,387.625c-22.215,0-40.289-18.073-40.289-40.289V202.364   c0-4.142-3.358-7.5-7.5-7.5s-7.5,3.358-7.5,7.5v85.707c-8.368,2.303-15.464,8.634-21.531,19.21   c-6.314,11.007-11.465,26.123-17.429,43.626l-0.654,1.921c-17.654,51.782-59.146,59.514-82.309,59.514s-64.654-7.732-82.309-59.515   l-0.654-1.92c-5.964-17.503-11.115-32.619-17.429-43.626c-6.067-10.576-13.163-16.908-21.531-19.21v-85.707   c0-4.142-3.358-7.5-7.5-7.5s-7.5,3.358-7.5,7.5v144.973c0,22.215-18.073,40.289-40.289,40.289S15,369.552,15,347.337   c0-29.529,16.816-72.597,69.207-177.242c21.273-42.491,56.978-70.968,106.123-84.641c2.497-0.694,4.458-2.628,5.187-5.115   c4.78-16.298,19.987-27.682,36.983-27.682c16.995,0,32.204,11.383,36.983,27.682c0.729,2.486,2.69,4.42,5.187,5.115   c49.146,13.673,84.851,42.15,106.124,84.641C433.184,274.74,450,317.808,450,347.337C450,369.552,431.927,387.625,409.711,387.625z   "/>
</g>















</svg>
